<svg xmlns="http://www.w3.org/2000/svg" viewBox="0 0 384 512"><!--! Font Awesome Pro 7.3.0 by @fontawesome - https://fontawesome.com License - https://fontawesome.com/license (Commercial License) Copyright 2026 Fonticons, Inc. --><path opacity=".4" fill="currentColor" d="M64 32C46.3 32 32 46.3 32 64t0 0l0 224 320 0 0-96-96 0c-35.3 0-64-28.7-64-64l0-96-128 0z"/><path fill="currentColor" d="M36.3 464c5.5 9.6 15.8 16 27.7 16l0 32c-29.8 0-54.8-20.4-61.9-48l34.2 0zM168 512l-56 0 0-32 56 0 0 32zm104 0l-56 0 0-32 56 0 0 32zm109.9-48c-7.1 27.6-32.1 48-61.9 48l0-32c11.8 0 22.2-6.4 27.7-16l34.2 0zM32 416l-32 0 0-48 32 0 0 48zm352 0l-32 0 0-48 32 0 0 48zM197.5 0c17 0 33.2 6.8 45.2 18.8L365.3 141.2c12 12 18.7 28.3 18.7 45.2L384 320 0 320 0 64C0 28.7 28.7 0 64 0L197.5 0zM64 32C46.3 32 32 46.3 32 64l0 224 320 0 0-96-96 0c-35.3 0-64-28.7-64-64l0-96-128 0zm160 96c0 17.7 14.3 32 32 32l82.7 0-114.7-114.8 0 82.8z"/></svg>