<svg xmlns="http://www.w3.org/2000/svg" viewBox="0 0 448 512"><!--! Font Awesome Pro 7.3.0 by @fontawesome - https://fontawesome.com License - https://fontawesome.com/license (Commercial License) Copyright 2026 Fonticons, Inc. --><path opacity=".4" fill="currentColor" d="M224.5 0l-4 .2c-19.9 2.1-39.6 19.2-51.5 39.8-2.9 4.9-8.1 8-13.8 8l-2.7 0c-13.3 0-24 10.7-24 24s10.7 24 24 24l24 0c8.8 0 16 7.2 16 16s-7.2 16-16 16l-9.5 0-11.6 249.5c-.3 6.1-1 12.2-2.1 18.2l12.4 70.1c4.7 26.8 28 46.3 55.2 46.3l99.5 0c-.8-26.6-22.6-48-49.4-48l-14.5 0c0 0-.1 0-.2 0-.5 0-1-.1-1.4-.1-1.7-.2-3.4-.5-4.9-1.2l0 0c-.2-.1-.3-.2-.5-.3-.7-.4-1.5-.7-2.1-1.2-.5-.4-1-.8-1.4-1.2-.2-.2-.5-.4-.7-.6l-.4-.4c-.5-.5-.9-1.1-1.3-1.6-.1-.2-.3-.3-.4-.5-.4-.6-.7-1.2-1-1.8-.2-.3-.4-.7-.5-1-.2-.5-.4-1.1-.5-1.7-.1-.4-.3-.8-.3-1.3-.5-2.5-.3-5.2 .5-7.8 .2-.6 .3-1.1 .5-1.7l.1-.2c0-.1 .1-.3 .2-.5 .2-.5 .5-1.2 .9-2.2 .8-2 2-4.9 3.5-8.7 2.9-7.6 6.7-18.4 10.6-31.5 7.8-26.3 15.3-60.6 15.3-94.5 0-8.8 7.2-16 16-16s16 7.2 16 16c0 6-.2 12-.6 17.9 6.6 8.6 16.9 14.1 28.6 14.1 12.9 0 24.2-6.8 30.6-17-6.2-2.2-10.5-8.1-10.5-15l0-21c0-5.9-3.2-11.3-8.3-14.1l-56.5-30.8c-13.9-7.6-23.2-21.6-24.8-37.3l-6.3-63.2c-.8-7.7 4.1-14.8 11.5-17l69.7-19.9c18.2-5.2 30.7-21.8 30.7-40.7 0-1.3-.8-2.5-1.9-3.1L276.4 11.8C260.8 4 243.7 0 226.3 0l-1.8 0zm52 64a20 20 0 1 1 -40 0 20 20 0 1 1 40 0z"/><path fill="currentColor" d="M226.3-32c22.3 0 44.4 5.2 64.4 15.2l90.2 45.1c12 6 19.6 18.3 19.6 31.7 0 33.2-22 62.3-53.9 71.5l-56.9 16.2 5 49.9c.5 5.3 3.6 9.9 8.2 12.4l56.5 30.8c15.4 8.4 25 24.6 25 42.2l0 21c0 8.8-7.2 16-16 16s-16-7.2-16-16l0-21c0-5.9-3.2-11.3-8.3-14.1l-56.5-30.8c-13.9-7.6-23.2-21.6-24.8-37.3l-6.3-63.2c-.8-7.7 4.1-14.8 11.5-17l69.7-19.9c18.2-5.2 30.7-21.8 30.7-40.7 0-1.3-.8-2.5-1.9-3.1L276.4 11.8C260.8 4 243.7 0 226.3 0l-1.8 0-4 .2c-19.9 2.1-39.6 19.2-51.5 39.8-2.9 4.9-8.1 8-13.8 8l-2.7 0c-13.3 0-24 10.7-24 24s10.7 24 24 24l24 0c8.8 0 16 7.2 16 16s-7.2 16-16 16l-9.5 0-11.6 249.5c-.3 6.1-1 12.2-2.1 18.2l12.4 70.1c4.7 26.8 28 46.3 55.2 46.3l99.5 0c-.8-26.6-22.6-48-49.4-48l-14.5 0c0 0-.1 0-.2 0-.5 0-1-.1-1.4-.1-1.7-.2-3.4-.5-4.9-1.2l0 0c-.2-.1-.3-.2-.5-.3-.7-.4-1.5-.7-2.1-1.2-.5-.4-1-.8-1.4-1.2-.2-.2-.5-.4-.7-.6l-.4-.4c-.5-.5-.9-1.1-1.3-1.6-.1-.2-.3-.3-.4-.5-.4-.6-.7-1.2-1-1.8-.2-.3-.4-.7-.5-1-.2-.5-.4-1.1-.5-1.7-.1-.4-.3-.8-.3-1.3-.5-2.5-.3-5.2 .5-7.8 .2-.6 .3-1.1 .5-1.7l.1-.2c0-.1 .1-.3 .2-.5 .2-.5 .5-1.2 .9-2.2 .8-2 2-4.9 3.5-8.7 2.9-7.6 6.7-18.4 10.6-31.5 7.8-26.3 15.3-60.6 15.3-94.5 0-8.8 7.2-16 16-16s16 7.2 16 16c0 38.1-8.4 75.8-16.7 103.5-2.8 9.5-5.7 17.9-8.2 24.9 40.9 4.3 72.9 39 72.9 81 0 16.9-13.7 30.5-30.5 30.5l-101.1 0c-42.7 0-79.2-30.7-86.7-72.7l-3.5-19.8c-9.9 14.6-22.4 27.4-37.2 37.7l-51.9 36c-7.3 5-17.2 3.2-22.2-4.1s-3.2-17.2 4.1-22.2l51.9-36c23.3-16.1 39.4-40.3 45.5-67.5l-.1-.6 .2-.1c1.3-6.1 2.2-12.4 2.5-18.7l11.7-250.8c-22.4-7.3-38.6-28.3-38.6-53.2 0-28.8 21.7-52.5 49.7-55.7 16.1-23.8 44-48.3 78.3-48.3l1.8 0zM256.5 84a20 20 0 1 1 0-40 20 20 0 1 1 0 40z"/></svg>