<svg xmlns="http://www.w3.org/2000/svg" viewBox="0 0 512 512"><!--! Font Awesome Pro 7.3.0 by @fontawesome - https://fontawesome.com License - https://fontawesome.com/license (Commercial License) Copyright 2026 Fonticons, Inc. --><path opacity=".4" fill="currentColor" d="M99.9 112c-8.5 0-16.6 3.4-22.6 9.4L25.4 173.2c-6 6-9.4 14.1-9.4 22.6l0 100.1 136 0 0-40c0-4.4 3.6-8 8-8s8 3.6 8 8l0 40 176 0 0-40c0-4.4 3.6-8 8-8s8 3.6 8 8l0 40 136 0 0-100.1c0-8.5-3.4-16.6-9.4-22.6l-51.9-51.9c-6-6-14.1-9.4-22.6-9.4L99.9 112zM16 312l0 104c0 26.5 21.5 48 48 48l384 0c26.5 0 48-21.5 48-48l0-104-136 0 0 40c0 4.4-3.6 8-8 8s-8-3.6-8-8l0-40-176 0 0 40c0 4.4-3.6 8-8 8s-8-3.6-8-8l0-40-136 0z"/><path fill="currentColor" d="M344 0c22.1 0 40 17.9 40 40l0 56 28.1 0c12.7 0 24.9 5.1 33.9 14.1l51.9 51.9c9 9 14.1 21.2 14.1 33.9L512 416c0 35.3-28.7 64-64 64L64 480c-35.3 0-64-28.7-64-64L0 195.9c0-11.1 3.9-21.9 10.9-30.4l3.2-3.5 51.9-51.9c9-9 21.2-14.1 33.9-14.1l28.1 0 0-56c0-22.1 17.9-40 40-40L344 0zM16 416c0 26.5 21.5 48 48 48l384 0c26.5 0 48-21.5 48-48l0-104-136 0 0 40c0 4.4-3.6 8-8 8s-8-3.6-8-8l0-40-176 0 0 40c0 4.4-3.6 8-8 8s-8-3.6-8-8l0-40-136 0 0 104zM99.9 112c-8.5 0-16.6 3.4-22.6 9.4L25.4 173.2c-6 6-9.4 14.1-9.4 22.6l0 100.1 136 0 0-40c0-4.4 3.6-8 8-8s8 3.6 8 8l0 40 176 0 0-40c0-4.4 3.6-8 8-8s8 3.6 8 8l0 40 136 0 0-100.1c0-8.5-3.4-16.6-9.4-22.6l-51.9-51.9c-6-6-14.1-9.4-22.6-9.4L99.9 112zM168 16c-13.3 0-24 10.7-24 24l0 56 224 0 0-56c0-13.3-10.7-24-24-24L168 16z"/></svg>